#!OML:ASF F:\VICON\USERDATA\INSTALL\rory3\rory3.ASF
:FULLY-SPECIFIED
:DEGREES
67
root 0.8800629590396399 17.91889328376655 27.913069722379383 -4.204410974525464 -3.6368227226309933 -1.9852024875130077
lfemur -15.113658695879547 -1.8262449976146795 -21.590429780694528
ltibia 30.798086371373426
lfoot -5.359445841002136 -5.352920583005343
ltoes -11.141033184533693
rfemur -8.003809380237623 -0.07222616788562641 24.859940664549605
rtibia 65.81714336770854
rfoot 8.478348093377065 -4.819099690430713
rtoes 21.418152289780974
lowerback -1.0 1.8997722988878532 1.3838235509472883
upperback 0.054652675289049574 2.8464743298499062 1.0044864551090515
thorax -6.117341179844031 1.3630928960847468 -0.2518295568227733
lowerneck -16.30034896112559 -3.4913776467352458 -2.0688900378090027
upperneck 21.128611326546995 -4.9962539713448635 2.61908684950936
head 9.447499987279205 -2.1730174878391004 0.56850760862673
lclavicle 1.5977708879512181e-15 -1.6289231331137443e-17
lhumerus -34.93379993299686 10.3050545278446 78.8230805830328
lradius 19.91196671995884
lwrist 4.174684728709469
lhand -29.24038997931963 17.5561057959425
lfingers nan
lthumb -2.4708031811420876 47.64622290841123
rclavicle 1.600102926817227e-15 3.399039543847015e-17
rhumerus -26.515373644974858 -17.017321960982642 -79.7193864083991
rradius 30.225567285698933
rwrist 1.4443832601111124
rhand -18.175657620591853 -1.0
rfingers nan
rthumb 7.965864217397916 -6.7582421012997616
68
root 0.8940526794993293 17.93148745353349 27.98744354558631 -4.321552951624739 -3.4556781268099743 -1.2868528206631842
lfemur -11.889580102743711 -2.0334806773858327 -22.63222426701909
ltibia 29.607560302490455
lfoot -6.392271510797263 -4.584827809015887
ltoes -12.147004669290386
rfemur -13.808624657567595 -0.8643792255098592 23.900284830492716
rtibia 72.26251137073655
rfoot 5.017035084382445 -6.681437967887652
rtoes 18.775051698110374
lowerback -1.0 1.5674660411104473 0.6897834454422123
upperback 0.14261072450991813 2.331958000539697 0.9484985057287417
thorax -6.197654245046523 1.1363010394245034 0.2418885812526963
lowerneck -16.33308660760478 -3.4109687248733214 -2.241557071727157
upperneck 21.0951447839243 -4.802775925861143 2.6852534315128307
head 9.441148593235756 -2.094845771390413 0.6283391924072419
lclavicle 1.5052760160117788e-15 -8.981283384491059e-17
lhumerus -34.271194801546436 9.57952719085246 79.19079656441147
lradius 20.63473898814552
lwrist 5.181882140177125
lhand -29.540487446371937 16.751829746452742
lfingers nan
lthumb -2.715762515477553 47.047487843249925
rclavicle 1.5231664049314233e-15 -1.1469198472589138e-17
rhumerus -27.2687833699069 -17.863164778440826 -79.4841557236709
rradius 29.778685875135753
rwrist 1.63061534419823
rhand -18.082587571007863 -1.0
rfingers nan
rthumb 8.019795632415597 -6.900163686160419
69
root 0.8975285322279329 17.93576886598655 28.78608740402583 -4.290287218500214 -2.7368783526033558 -0.7142478656818172
lfemur -8.628182633908493 -2.3940196634128776 -23.657257090864213
ltibia 27.753239397531253
lfoot -7.209063791720186 -3.9250102904421356
ltoes -13.520301516322728
rfemur -18.709355519062967 -1.803257569933979 23.280729077786592
rtibia 75.21604152610684
rfoot 1.6582416481473663 -7.642735166859319
rtoes 15.818776021355049
lowerback -1.0 1.0890742732551193 -0.07013217723084642
upperback 0.22489240472520367 1.5960468906026 0.9412834840103897
thorax -6.272798198779221 0.8071812968791295 0.8750025276741572
lowerneck -16.40187669824474 -3.350722197587153 -2.421713376186932
upperneck 21.03254483750172 -4.647033070718286 2.7730728824399042
head 9.423354670006495 -2.0303588254637717 0.6892517957011246
lclavicle 1.5271088277651015e-15 -5.586062586244529e-17
lhumerus -33.412636064517876 8.59609785314138 79.64236080095245
lradius 21.539886748434313
lwrist 6.1089587049053025
lhand -29.699577086607288 16.645809538510612
lfingers nan
lthumb -2.8885737224580263 46.97620673944116
rclavicle 1.466301912547842e-15 -2.789375872815423e-17
rhumerus -28.02313410626875 -18.67388759832704 -79.18002421822473
rradius 29.47011237020574
rwrist 1.6977141673932388
rhand -17.998372129253372 -1.0
rfingers nan
rthumb 8.064179915272 -7.042369960042172
70
root 0.8770717020584917 17.923502461905017 29.555523593793996 -4.142718851381754 -1.9125363420932442 -0.43313453497185384
lfemur -5.820738433268728 -2.979563989623041 -24.40296522743082
ltibia 26.184597734502233
lfoot -7.493176676583351 -3.1881034909182073
ltoes -15.07946581769158
rfemur -22.833072345423258 -2.4978180674174855 23.0879091623389
rtibia 74.6501596501275
rfoot -1.5025179517650002 -7.875068734761909
rtoes 13.093174334918917
lowerback -1.0 0.6198704647378538 -0.5581195968220971
upperback 0.298930885816566 0.8943980866610008 1.0229717516162338
thorax -6.301663031421141 0.48134931411079185 1.4942177147901456
lowerneck -16.486145698440474 -3.3016554106815126 -2.571629269525749
upperneck 20.935881130235938 -4.525211456338695 2.8602397704535862
head 9.39338766687131 -1.9792621828146981 0.7421955569888949
lclavicle 1.3887569254490384e-15 -1.0321746654376266e-16
lhumerus -32.39365260414631 7.374204541907482 80.11416160737643
lradius 22.56987280732979
lwrist 6.853229925323602
lhand -29.678138554570815 17.160660997025477
lfingers nan
lthumb -2.937716638134031 47.33114052100263
rclavicle 1.3455004183433787e-15 -7.446377331513821e-17
rhumerus -28.80025921651228 -19.35052777594423 -78.82930348053696
rradius 29.38302471436261
rwrist 1.498622192193872
rhand -17.95200411608166 -1.0
rfingers nan
rthumb 8.096412730354169 -7.162560500444398
71
root 0.8642600858746905 17.889238728809353 30.78792386859659 -3.82667414154838 -0.7834398144451609 -0.10092097473748973
lfemur -3.1819157205310757 -3.564042412142107 -25.05273978251252
ltibia 25.022599383433842
lfoot -8.039393892366748 -3.2448379784915944
ltoes -16.155398450011386
rfemur -25.894463342850504 -2.807324436062813 22.755505516703415
rtibia 70.6700536037607
rfoot -3.984595686443183 -8.014266615728163
rtoes 9.973908827254894
lowerback -1.0 0.08787101334571817 -1.1905380858305
upperback 0.32795903800567616 0.09651347826376705 1.1157982155865835
thorax -6.312012149424061 0.11413705719440241 2.1635266567939113
lowerneck -16.573410590849218 -3.2670139143435715 -2.679743719527515
upperneck 20.799267315040975 -4.447694909170625 2.941650998326832
head 9.348519404087742 -1.9464141521888798 0.7865493983414968
lclavicle 1.3220983626814745e-15 -1.2167282949470145e-16
lhumerus -31.258113910348545 5.960589535189583 80.55271535502284
lradius 23.688351796009563
lwrist 7.380794187742074
lhand -29.498178234832157 18.020710908585897
lfingers nan
lthumb -2.8343612146099444 47.98987588871228
rclavicle 1.1545637522542216e-15 -1.770814558920487e-16
rhumerus -29.589373189134797 -19.83669853328203 -78.48096509737663
rradius 29.489478148793452
rwrist 1.0803588011262089
rhand -17.958484369505157 -1.0
rfingers nan
rthumb 8.109896513116377 -7.228556464270324
72
root 0.8385006261863915 17.84714734228977 31.477475342581034 -3.5040350773509426 -0.14610267991627277 0.07442554220249775
lfemur -0.6790068450376534 -3.8388141357465235 -25.35836931461916
ltibia 23.84443104519837
lfoot -7.603456747393684 -3.390450598487707
ltoes -17.10851704525963
rfemur -27.75476496801445 -2.5626331789134857 22.465253020328312
rtibia 63.32175850709143
rfoot -5.885962186712485 -8.619219905758895
rtoes 6.267733659616045
lowerback -1.0 -0.22989685398562357 -1.6649874756108891
upperback 0.34599338746060415 -0.420469721119918 1.193535286446773
thorax -6.2670688226037035 -0.12354614305037256 2.6792121100732755
lowerneck -16.677762079184095 -3.2552956072459085 -2.7519190054074163
upperneck 20.63835885075188 -4.421012606315204 3.0200105945992
head 9.297312790582396 -1.9333531949770835 0.8230436906216034
lclavicle 1.2824094068933655e-15 -1.5171914581351595e-16
lhumerus -30.02513966981828 4.4894250136258576 80.92325434738939
lradius 24.857977518260938
lwrist 7.768018843816539
lhand -29.205125160367984 19.075503746164873
lfingers nan
lthumb -2.6134151236174334 48.850601436004496
rclavicle 1.045545690522167e-15 -2.541381558851226e-16
rhumerus -30.403342660715463 -20.18107274626036 -78.17695507836055
rradius 29.70006201540335
rwrist 0.6455794541464313
rhand -17.989592478109223 -1.0
rfingers nan
rthumb 8.097638771661666 -7.2259417928460765
